<svg width="130" height="39" viewBox="0 0 130 39" fill="none" xmlns="http://www.w3.org/2000/svg">
<path d="M11.45 3.34999C16.0167 3.34999 19.5667 4.29999 22.1 6.19999C24.6333 8.09999 25.9 10.9167 25.9 14.65C25.9 18.55 24.65 21.5 22.15 23.5C19.6833 25.4667 16.3667 26.45 12.2 26.45H8.45V38H0.25V3.34999H11.45ZM11.5 20.55C13.4333 20.55 14.9 20.1 15.9 19.2C16.9333 18.2667 17.45 16.75 17.45 14.65C17.45 11.0167 15.4167 9.19999 11.35 9.19999H8.45V20.55H11.5Z" fill="#141414"/>
<path d="M51.7168 24.2C51.7168 25.3 51.6668 26.25 51.5668 27.05H35.1168C35.3835 29.2833 36.0168 30.85 37.0168 31.75C38.0168 32.65 39.4001 33.1 41.1668 33.1C42.2335 33.1 43.2668 32.9167 44.2668 32.55C45.2668 32.15 46.3501 31.55 47.5168 30.75L50.7668 35.15C47.6668 37.6167 44.2168 38.85 40.4168 38.85C36.1168 38.85 32.8168 37.5833 30.5168 35.05C28.2168 32.5167 27.0668 29.1167 27.0668 24.85C27.0668 22.15 27.5501 19.7333 28.5168 17.6C29.4835 15.4333 30.9001 13.7333 32.7668 12.5C34.6335 11.2333 36.8668 10.6 39.4668 10.6C43.3001 10.6 46.3001 11.8 48.4668 14.2C50.6335 16.6 51.7168 19.9333 51.7168 24.2ZM43.9668 21.95C43.9001 17.8833 42.4668 15.85 39.6668 15.85C38.3001 15.85 37.2335 16.35 36.4668 17.35C35.7335 18.35 35.2835 20 35.1168 22.3H43.9668V21.95Z" fill="#141414"/>
<path d="M79.9547 0.899989V38H72.9547L72.5547 34.9C70.688 37.5333 68.1713 38.85 65.0047 38.85C61.7047 38.85 59.188 37.5833 57.4547 35.05C55.7547 32.5167 54.9047 29.05 54.9047 24.65C54.9047 21.95 55.3547 19.5333 56.2547 17.4C57.1547 15.2667 58.4214 13.6 60.0547 12.4C61.7214 11.2 63.6214 10.6 65.7547 10.6C68.288 10.6 70.388 11.4333 72.0547 13.1V0.0499878L79.9547 0.899989ZM67.4547 33.05C69.288 33.05 70.8214 32.05 72.0547 30.05V18.6C71.4214 17.8333 70.7714 17.2667 70.1047 16.9C69.4714 16.5333 68.738 16.35 67.9047 16.35C66.438 16.35 65.2714 17.0333 64.4047 18.4C63.538 19.7667 63.1047 21.8667 63.1047 24.7C63.1047 27.8 63.4714 29.9667 64.2047 31.2C64.9714 32.4333 66.0547 33.05 67.4547 33.05Z" fill="#141414"/>
<path d="M100.535 10.7C101.502 10.7 102.385 10.8167 103.185 11.05L101.935 18.7C100.935 18.4667 100.135 18.35 99.5352 18.35C97.9685 18.35 96.7685 18.9 95.9352 20C95.1352 21.0667 94.5018 22.6833 94.0352 24.85V38H86.1352V11.45H93.0352L93.6852 16.6C94.2852 14.7667 95.1852 13.3333 96.3852 12.3C97.6185 11.2333 99.0018 10.7 100.535 10.7Z" fill="#141414"/>
<path d="M116.19 10.6C120.257 10.6 123.44 11.85 125.74 14.35C128.04 16.8167 129.19 20.2833 129.19 24.75C129.19 27.5833 128.657 30.0667 127.59 32.2C126.557 34.3 125.057 35.9333 123.09 37.1C121.157 38.2667 118.857 38.85 116.19 38.85C112.157 38.85 108.973 37.6167 106.64 35.15C104.34 32.65 103.19 29.1667 103.19 24.7C103.19 21.8667 103.707 19.4 104.74 17.3C105.807 15.1667 107.307 13.5167 109.24 12.35C111.207 11.1833 113.523 10.6 116.19 10.6ZM116.19 16.4C114.59 16.4 113.39 17.0833 112.59 18.45C111.79 19.7833 111.39 21.8667 111.39 24.7C111.39 27.6 111.773 29.7167 112.54 31.05C113.34 32.3833 114.557 33.05 116.19 33.05C117.79 33.05 118.99 32.3833 119.79 31.05C120.59 29.6833 120.99 27.5833 120.99 24.75C120.99 21.85 120.59 19.7333 119.79 18.4C119.023 17.0667 117.823 16.4 116.19 16.4Z" fill="#141414"/>
</svg>
